<svg width="814" height="130" viewBox="0 0 814 130" fill="none" xmlns="http://www.w3.org/2000/svg">
	<mask id="path-1-inside-1_439_831" fill="white">
		<rect x="0.950684" y="56.6904" width="29.9154" height="49.859" rx="4.15491" />
	</mask>
	<rect x="0.950684" y="56.6904" width="29.9154" height="49.859" rx="4.15491" stroke="white"
		stroke-width="14.9577" mask="url(#path-1-inside-1_439_831)" />
	<mask id="path-2-inside-2_439_831" fill="white">
		<rect x="0.950684" y="23.4512" width="83.0983" height="29.9154" rx="4.15491" />
	</mask>
	<rect x="0.950684" y="23.4512" width="83.0983" height="29.9154" rx="4.15491" stroke="white"
		stroke-width="14.9577" mask="url(#path-2-inside-2_439_831)" />
	<path
		d="M56.1861 57.9106C57.8087 56.288 60.4395 56.288 62.0621 57.9106L82.8337 78.6822C84.4563 80.3048 84.4563 82.9356 82.8337 84.5582L62.0621 105.33C60.4395 106.952 57.8087 106.952 56.1861 105.33L35.4145 84.5582C33.7919 82.9356 33.7919 80.3048 35.4145 78.6822L56.1861 57.9106Z"
		fill="white" />
	<path
		d="M138.913 102H120.769V33.072H148.993C158.337 33.072 165.537 35.088 170.593 39.12C175.713 43.088 178.273 48.752 178.273 56.112C178.273 60.528 176.993 64.496 174.433 68.016C171.937 71.472 168.353 74.192 163.681 76.176L180.577 102H158.977L144.865 79.056H138.913V102ZM138.913 48.048V64.08H148.225C152.257 64.08 155.233 63.44 157.153 62.16C159.073 60.88 160.033 58.864 160.033 56.112C160.033 53.36 159.073 51.344 157.153 50.064C155.233 48.72 152.257 48.048 148.225 48.048H138.913ZM208.847 102.864C203.535 102.864 198.863 101.744 194.831 99.504C190.863 97.264 187.759 94.128 185.519 90.096C183.343 86.064 182.255 81.392 182.255 76.08C182.255 70.896 183.375 66.32 185.615 62.352C187.919 58.32 191.055 55.152 195.023 52.848C199.055 50.544 203.631 49.392 208.751 49.392C213.039 49.392 216.911 50.192 220.367 51.792C223.823 53.392 226.703 55.632 229.007 58.512C231.375 61.328 233.039 64.624 233.999 68.4C234.959 72.112 235.055 76.08 234.287 80.304H192.143V70.032H216.719C216.655 67.408 215.855 65.328 214.319 63.792C212.783 62.256 210.799 61.488 208.367 61.488C206.255 61.488 204.495 62.032 203.087 63.12C201.743 64.144 200.719 65.744 200.015 67.92C199.311 70.096 198.959 72.848 198.959 76.176C198.959 79.248 199.311 81.84 200.015 83.952C200.719 86 201.775 87.536 203.183 88.56C204.591 89.584 206.351 90.096 208.463 90.096C210.767 90.096 212.687 89.616 214.223 88.656C215.759 87.696 216.879 86.288 217.583 84.432H233.999C232.399 90.32 229.423 94.864 225.071 98.064C220.719 101.264 215.311 102.864 208.847 102.864ZM295.709 76.176C295.709 81.104 294.749 85.616 292.829 89.712C290.909 93.744 288.221 96.976 284.765 99.408C281.373 101.776 277.341 102.96 272.669 102.96C269.661 102.96 266.877 102.384 264.317 101.232C261.757 100.016 259.421 98.32 257.309 96.144V102H242.237V33.072H258.653V55.152C260.701 53.232 262.877 51.792 265.181 50.832C267.485 49.872 269.981 49.392 272.669 49.392C277.341 49.392 281.373 50.576 284.765 52.944C288.221 55.312 290.909 58.544 292.829 62.64C294.749 66.672 295.709 71.184 295.709 76.176ZM278.621 76.176C278.621 72.016 277.597 68.976 275.549 67.056C273.501 65.136 271.229 64.176 268.733 64.176C267.069 64.176 265.469 64.592 263.933 65.424C262.461 66.256 261.245 67.568 260.285 69.36C259.325 71.088 258.845 73.328 258.845 76.08C258.845 78.768 259.293 81.008 260.189 82.8C261.149 84.592 262.397 85.936 263.933 86.832C265.469 87.728 267.069 88.176 268.733 88.176C271.229 88.176 273.501 87.184 275.549 85.2C277.597 83.216 278.621 80.208 278.621 76.176ZM319.591 78.192V102H303.175V50.352H318.247V59.472C320.231 56.464 323.079 54.128 326.791 52.464C330.567 50.8 334.503 49.968 338.599 49.968V67.056C334.759 66.672 331.399 66.64 328.519 66.96C325.703 67.216 323.495 68.208 321.895 69.936C320.359 71.6 319.591 74.352 319.591 78.192ZM361.31 102H344.894V50.352H361.31V102ZM363.518 38.352C363.518 41.04 362.526 43.28 360.542 45.072C358.622 46.8 356.094 47.664 352.958 47.664C349.822 47.664 347.262 46.8 345.278 45.072C343.358 43.28 342.398 41.04 342.398 38.352C342.398 35.6 343.358 33.36 345.278 31.632C347.262 29.84 349.822 28.944 352.958 28.944C356.094 28.944 358.622 29.84 360.542 31.632C362.526 33.36 363.518 35.6 363.518 38.352ZM394.833 102.96C389.713 102.96 385.201 101.84 381.297 99.6C377.393 97.296 374.321 94.128 372.081 90.096C369.905 86.064 368.817 81.424 368.817 76.176C368.817 71.056 369.937 66.48 372.177 62.448C374.481 58.416 377.585 55.248 381.489 52.944C385.457 50.576 389.905 49.392 394.833 49.392C399.569 49.392 403.825 50.416 407.601 52.464C411.377 54.448 414.449 57.232 416.817 60.816C419.185 64.4 420.593 68.592 421.041 73.392H403.569C403.441 70.576 402.577 68.336 400.977 66.672C399.441 65.008 397.425 64.176 394.929 64.176C393.009 64.176 391.377 64.656 390.033 65.616C388.689 66.576 387.633 67.952 386.865 69.744C386.161 71.472 385.809 73.616 385.809 76.176C385.809 78.736 386.161 80.944 386.865 82.8C387.569 84.592 388.593 85.968 389.937 86.928C391.345 87.824 393.009 88.272 394.929 88.272C397.489 88.272 399.505 87.472 400.977 85.872C402.513 84.208 403.377 81.904 403.569 78.96H421.041C420.593 83.888 419.217 88.144 416.913 91.728C414.609 95.312 411.569 98.096 407.793 100.08C404.081 102 399.761 102.96 394.833 102.96ZM444.935 102H428.519V33.072H444.935V71.28L460.967 50.352H479.879L460.775 74.832L482.567 102H461.639L444.935 78.48V102ZM530.092 84.432C530.092 90.128 528.044 94.64 523.948 97.968C519.852 101.296 513.9 102.96 506.092 102.96C498.348 102.96 492.364 101.264 488.14 97.872C483.916 94.416 481.548 89.712 481.036 83.76H496.78C496.78 85.936 497.676 87.664 499.468 88.944C501.26 90.224 503.564 90.864 506.38 90.864C508.236 90.864 509.868 90.608 511.276 90.096C512.748 89.584 513.484 88.656 513.484 87.312C513.484 86.16 513.036 85.296 512.14 84.72C511.308 84.144 509.996 83.696 508.204 83.376L498.028 81.552C493.548 80.72 489.964 79.024 487.276 76.464C484.588 73.904 483.244 70.544 483.244 66.384C483.244 63.056 484.14 60.112 485.932 57.552C487.724 54.992 490.252 53.008 493.516 51.6C496.844 50.128 500.748 49.392 505.228 49.392C509.772 49.392 513.772 50.16 517.228 51.696C520.684 53.168 523.436 55.312 525.484 58.128C527.596 60.944 528.812 64.272 529.132 68.112H513.388C513.196 66.064 512.364 64.464 510.892 63.312C509.42 62.096 507.564 61.488 505.324 61.488C503.404 61.488 501.868 61.776 500.716 62.352C499.564 62.864 498.988 63.696 498.988 64.848C498.988 65.936 499.404 66.704 500.236 67.152C501.068 67.6 502.284 67.984 503.884 68.304L514.828 70.32C519.82 71.216 523.596 72.88 526.156 75.312C528.78 77.68 530.092 80.72 530.092 84.432ZM577.857 102H560.865V33.072H577.857C585.281 33.072 591.489 34.544 596.481 37.488C601.537 40.368 605.345 44.368 607.905 49.488C610.465 54.608 611.745 60.56 611.745 67.344C611.745 73.936 610.433 79.856 607.809 85.104C605.185 90.288 601.345 94.416 596.289 97.488C591.233 100.496 585.089 102 577.857 102ZM564.225 35.952V99.12H577.953C584.481 99.12 589.985 97.776 594.465 95.088C599.009 92.336 602.465 88.56 604.833 83.76C607.201 78.96 608.385 73.488 608.385 67.344C608.385 61.072 607.201 55.6 604.833 50.928C602.529 46.192 599.105 42.512 594.561 39.888C590.081 37.264 584.545 35.952 577.953 35.952H564.225ZM627.218 102H623.954V51.792H627.218V102ZM629.234 40.176C629.234 41.2 628.882 42.064 628.178 42.768C627.538 43.472 626.674 43.824 625.586 43.824C624.562 43.824 623.698 43.472 622.994 42.768C622.29 42.064 621.938 41.2 621.938 40.176C621.938 39.152 622.29 38.32 622.994 37.68C623.698 37.04 624.562 36.72 625.586 36.72C626.674 36.72 627.538 37.04 628.178 37.68C628.882 38.32 629.234 39.152 629.234 40.176ZM660.933 121.584C656.837 121.584 653.285 120.88 650.277 119.472C647.269 118.128 644.933 116.144 643.269 113.52C641.605 110.96 640.677 107.856 640.485 104.208H643.557C643.877 108.944 645.509 112.56 648.453 115.056C651.461 117.616 655.589 118.896 660.837 118.896C666.533 118.896 670.821 117.424 673.701 114.48C676.645 111.536 678.117 107.248 678.117 101.616V89.424C676.517 93.52 674.149 96.72 671.013 99.024C667.941 101.328 664.357 102.48 660.261 102.48C655.973 102.48 652.261 101.424 649.125 99.312C645.989 97.2 643.557 94.192 641.829 90.288C640.101 86.384 639.237 81.808 639.237 76.56C639.237 71.312 640.101 66.768 641.829 62.928C643.557 59.088 645.989 56.112 649.125 54C652.325 51.888 656.037 50.832 660.261 50.832C664.293 50.832 667.909 52.048 671.109 54.48C674.309 56.912 676.677 60.24 678.213 64.464V51.792H681.381V101.52C681.381 107.92 679.589 112.848 676.005 116.304C672.485 119.824 667.461 121.584 660.933 121.584ZM642.501 76.56C642.501 83.792 644.069 89.456 647.205 93.552C650.405 97.648 654.789 99.696 660.357 99.696C663.941 99.696 667.077 98.768 669.765 96.912C672.453 95.056 674.533 92.432 676.005 89.04C677.541 85.648 678.309 81.712 678.309 77.232C678.309 70 676.677 64.24 673.413 59.952C670.213 55.664 665.861 53.52 660.357 53.52C654.853 53.52 650.501 55.568 647.301 59.664C644.101 63.76 642.501 69.392 642.501 76.56ZM700.625 102H697.361V51.792H700.625V102ZM702.641 40.176C702.641 41.2 702.289 42.064 701.585 42.768C700.945 43.472 700.081 43.824 698.993 43.824C697.969 43.824 697.105 43.472 696.401 42.768C695.697 42.064 695.345 41.2 695.345 40.176C695.345 39.152 695.697 38.32 696.401 37.68C697.105 37.04 697.969 36.72 698.993 36.72C700.081 36.72 700.945 37.04 701.585 37.68C702.289 38.32 702.641 39.152 702.641 40.176ZM739.523 99.024V102C738.435 102.384 737.443 102.64 736.547 102.768C735.651 102.896 734.755 102.96 733.859 102.96C731.427 102.96 729.187 102.544 727.139 101.712C725.091 100.816 723.427 99.344 722.147 97.296C720.931 95.248 720.323 92.464 720.323 88.944V54.384H707.651V51.792H720.323V36.912H723.587V51.792H740.099V54.384H723.587V88.368C723.587 92.784 724.579 95.824 726.563 97.488C728.611 99.152 731.107 99.984 734.051 99.984C735.011 99.984 735.907 99.92 736.739 99.792C737.571 99.664 738.499 99.408 739.523 99.024ZM782.659 102V91.344C781.315 94.864 779.043 97.68 775.843 99.792C772.707 101.904 769.059 102.96 764.899 102.96C759.715 102.96 755.587 101.648 752.515 99.024C749.443 96.4 747.907 92.88 747.907 88.464C747.907 83.536 749.827 79.824 753.667 77.328C757.571 74.832 763.395 73.584 771.139 73.584C772.739 73.584 774.307 73.616 775.843 73.68C777.379 73.744 779.619 73.904 782.563 74.16V69.264C782.563 64.336 781.315 60.496 778.819 57.744C776.387 54.928 772.963 53.52 768.547 53.52C763.811 53.52 760.035 54.928 757.219 57.744C754.403 60.56 752.995 64.368 752.995 69.168H749.923C749.923 65.456 750.691 62.256 752.227 59.568C753.763 56.816 755.907 54.672 758.659 53.136C761.475 51.6 764.739 50.832 768.451 50.832C773.955 50.832 778.211 52.4 781.219 55.536C784.291 58.672 785.827 63.056 785.827 68.688V102H782.659ZM751.171 88.368C751.171 91.888 752.419 94.768 754.915 97.008C757.475 99.184 760.803 100.272 764.899 100.272C770.275 100.272 774.563 98.576 777.763 95.184C780.963 91.728 782.563 87.184 782.563 81.552V76.656C780.067 76.464 777.923 76.336 776.131 76.272C774.339 76.208 772.707 76.176 771.235 76.176C764.451 76.176 759.395 77.168 756.067 79.152C752.803 81.136 751.171 84.208 751.171 88.368ZM804.593 102H801.329V33.072H804.593V102Z"
		fill="white" />
</svg>