<?xml version="1.0" standalone="no"?>
<!DOCTYPE svg PUBLIC "-//W3C//DTD SVG 20010904//EN"
 "http://www.w3.org/TR/2001/REC-SVG-20010904/DTD/svg10.dtd">
<svg version="1.0" xmlns="http://www.w3.org/2000/svg"
 width="700.000000pt" height="700.000000pt" viewBox="0 0 700.000000 700.000000"
 preserveAspectRatio="xMidYMid meet">
<metadata>
Created by potrace 1.14, written by Peter Selinger 2001-2017
</metadata>
<g transform="translate(0.000000,700.000000) scale(0.100000,-0.100000)"
fill="#000000" stroke="none">
<path d="M232 6977 c-86 -31 -152 -90 -194 -174 l-33 -68 0 -995 0 -995 26
-56 c37 -79 90 -133 167 -171 l67 -33 3235 0 3235 0 62 29 c75 34 134 95 171
174 l27 57 3 960 c2 689 0 977 -8 1019 -21 107 -92 194 -200 245 l-55 26
-3220 2 -3220 2 -63 -22z m6138 -1237 l0 -630 -2870 0 -2870 0 0 630 0 630
2870 0 2870 0 0 -630z"/>
<path d="M253 4185 c-102 -31 -176 -96 -222 -195 l-26 -55 0 -1835 0 -1835 26
-56 c37 -79 90 -133 167 -171 l67 -33 995 0 995 0 62 29 c75 34 134 95 171
174 l27 57 0 1835 0 1835 -33 67 c-38 77 -92 130 -171 167 l-56 26 -980 2
c-786 1 -988 -1 -1022 -12z m1637 -2085 l0 -1470 -630 0 -630 0 0 1470 0 1470
630 0 630 0 0 -1470z"/>
<path d="M4803 4185 c-23 -7 -62 -24 -85 -38 -63 -38 -1851 -1832 -1877 -1883
-28 -58 -34 -88 -35 -175 0 -149 -54 -87 981 -1120 1034 -1032 954 -963 1113
-963 158 -1 78 -69 1112 962 653 652 924 930 943 964 33 61 40 94 39 185 -2
143 48 87 -981 1114 -824 822 -924 918 -973 939 -65 27 -175 34 -237 15z"/>
</g>
</svg>
